PathFileType	4	(X/Y/Z)	D:\TRACE\spot_10-12-23\spot_arm_body_motion_1_4-v60.trc
DataRate	CameraRate	NumFrames	NumMarkers	Units	OrigDataRate	OrigDataStartFrame	OrigNumFrames
100.00	100.00	      17	9	mm	100.00	4376	      7000
Frame#	Time	front left toe			Front right toe			aft left toe			aft right toe			Arm			FL body			FR body			AL Body			AR Body			
		X1	Y1	Z1	X2	Y2	Z2	X3	Y3	Z3	X4	Y4	Z4	X5	Y5	Z5	X6	Y6	Z6	X7	Y7	Z7	X8	Y8	Z8	X9	Y9	Z9	

4376	43.750	81.79987	22.58215	-432.89481	498.70862	18.56410	-487.03473	249.32722	25.40797	164.85277	622.50812	18.52814	66.64785	245.61797	736.77179	-776.47943	236.10028	582.74542	-486.80194	384.92188	587.61768	-529.82654	481.66077	563.98151	360.88693	617.99744	563.57605	324.21451	
4377	43.760	81.11649	23.25627	-432.88397	497.86630	18.73032	-486.90094	248.60701	25.46894	164.92558	621.77063	18.35014	66.68878	245.59050	736.84827	-776.44757	236.77783	583.34448	-486.52914	386.07584	588.12262	-529.43640	482.42084	563.61810	361.17694	619.21564	563.35828	324.72470	
4378	43.770	80.44512	23.63509	-432.98407	497.03900	18.83867	-486.83188	247.92061	25.57163	164.91884	620.96155	18.15746	66.73106	245.47705	736.94104	-776.43848	237.55418	583.72467	-486.05515	386.75165	588.58710	-529.12738	483.08075	563.22449	361.43677	619.39819	562.93970	324.79489	
4379	43.780	79.81063	24.04124	-432.92474	496.84778	18.90397	-486.58774	247.25323	25.59246	164.95128	620.28131	18.03782	66.92503	245.33473	737.11200	-776.41223	238.28651	583.95551	-485.77188	387.41620	589.05389	-528.83948	483.76941	562.91730	361.64026	619.95508	562.91370	325.23807	
4380	43.790	79.39078	25.23485	-432.82297	495.91867	18.96373	-486.63995	246.56396	25.42677	165.19128	619.64667	18.03249	66.96970	245.09256	737.34033	-776.34222	238.78448	584.56158	-485.21799	387.28903	589.60840	-528.61658	484.24500	562.71344	361.88324	620.47583	562.74420	325.37936	
4381	43.800	81.76017	33.25640	-431.23221	495.30084	18.92430	-486.57108	245.73520	25.48856	164.79848	618.83893	17.82534	66.97221	244.88200	737.61163	-776.35370	239.61469	584.59686	-485.54419	387.85318	589.96057	-528.35284	484.52026	562.30383	362.10922	620.77301	562.12347	325.39786	
4382	43.810	84.00986	43.60262	-427.39957	494.78397	19.02762	-486.46597	244.82391	25.61177	164.79977	617.75537	17.62584	67.10640	244.48763	737.81415	-776.31390	240.13835	584.67474	-485.71420	388.41940	590.11285	-528.27850	484.44339	561.99780	362.15189	620.75671	561.84656	325.56647	
4383	43.820	86.02247	54.07598	-424.21036	493.96823	19.37514	-486.40897	244.00250	25.75008	164.93378	617.16345	17.72006	67.27771	244.31125	737.98578	-776.32141	240.33864	584.57281	-485.72098	389.41498	590.12024	-528.36133	484.41412	561.82550	362.14374	620.74286	561.79584	325.67783	
4384	43.830	85.62661	65.72183	-424.37439	493.27252	19.42152	-486.21497	243.26437	25.53851	165.02831	616.35162	17.91254	67.49374	243.97383	738.05719	-776.27563	240.38725	584.52338	-485.62769	389.41483	590.12463	-528.24316	484.37024	561.84680	362.22278	621.80121	561.98108	326.44342	
4385	43.840	84.56206	78.11273	-428.01428	492.20511	19.62417	-486.39142	242.45406	25.50480	165.13237	615.32172	17.72858	67.58939	243.63945	738.06647	-776.22913	240.29314	584.64148	-485.44644	388.63367	590.36792	-528.00818	484.44611	561.80341	362.34720	621.02533	561.83795	326.12790	
4386	43.850	83.93159	91.02426	-432.01630	491.43890	20.09297	-486.18015	241.67160	25.52155	165.18817	614.52655	17.51423	67.55289	243.31424	738.00800	-776.13379	240.14565	585.05676	-485.26376	388.85687	590.82098	-528.02979	484.46185	561.61731	362.62164	621.36853	561.98425	326.60147	
4387	43.860	84.88525	102.73426	-434.47174	491.98499	21.60877	-484.42139	241.00467	25.42738	165.19885	613.98517	17.41853	67.54718	242.96513	737.96539	-775.92413	239.63861	585.67053	-485.08276	388.52722	591.24835	-527.91797	484.30765	561.12482	362.75989	620.66113	561.48840	326.17639	
4388	43.870	86.17033	112.49540	-433.95206	489.51367	20.82941	-485.91614	240.08714	25.53304	165.27003	613.03668	17.21703	67.57207	242.44972	737.96106	-775.68719	239.14418	586.18030	-484.84631	388.20938	591.71326	-527.69830	483.96790	560.47797	362.86514	620.95898	560.94153	326.30713	
4389	43.880	87.84909	120.53836	-431.41025	488.62411	21.10842	-485.81604	239.09100	25.43130	165.37733	611.92975	17.00816	67.67684	242.15372	737.93408	-775.51154	238.70395	586.55719	-484.67880	386.87305	592.26691	-527.31451	483.72235	560.18457	363.05103	620.47717	560.60437	326.43845	
4390	43.890	89.54722	127.05605	-429.13528	487.61804	21.50029	-485.85965	238.27216	25.07133	165.50572	611.20428	17.06874	67.79274	241.98134	737.95398	-775.43365	237.81790	587.05389	-484.44601	386.75928	592.69299	-527.17657	482.96875	560.10571	363.11905	619.71277	560.50500	326.62640	
4391	43.900	89.90606	131.76270	-428.06851	486.53766	21.75978	-485.82779	237.28275	25.17732	165.61952	610.23242	17.22926	68.01020	241.74957	737.92181	-775.44214	236.98372	587.30292	-484.15433	385.99286	592.94257	-527.00342	482.52417	560.42169	363.55356	619.05817	560.60553	326.92020	
4392	43.910	89.86600	134.94914	-428.09073	485.83759	21.98408	-485.57904	236.41960	25.33701	165.56123	609.31317	17.18372	67.93943	241.44206	738.04950	-775.42670	236.10349	587.33496	-483.89957	385.13245	592.95709	-526.75745	481.94461	560.60779	363.86856	618.12488	560.70306	326.80661	
